<svg width="29" height="24" viewBox="0 0 29 24" fill="none" xmlns="http://www.w3.org/2000/svg">
<path d="M0.696 12.032C0.696 8.34133 1.35733 5.45067 2.68 3.36C4.024 1.26933 6.24267 0.223999 9.336 0.223999C12.4293 0.223999 14.6373 1.26933 15.96 3.36C17.304 5.45067 17.976 8.34133 17.976 12.032C17.976 15.744 17.304 18.656 15.96 20.768C14.6373 22.88 12.4293 23.936 9.336 23.936C6.24267 23.936 4.024 22.88 2.68 20.768C1.35733 18.656 0.696 15.744 0.696 12.032ZM13.56 12.032C13.56 10.4533 13.4533 9.13067 13.24 8.064C13.048 6.976 12.6427 6.09067 12.024 5.408C11.4267 4.72533 10.5307 4.384 9.336 4.384C8.14133 4.384 7.23467 4.72533 6.616 5.408C6.01867 6.09067 5.61333 6.976 5.4 8.064C5.208 9.13067 5.112 10.4533 5.112 12.032C5.112 13.6533 5.208 15.0187 5.4 16.128C5.592 17.216 5.99733 18.1013 6.616 18.784C7.23467 19.4453 8.14133 19.776 9.336 19.776C10.5307 19.776 11.4373 19.4453 12.056 18.784C12.6747 18.1013 13.08 17.216 13.272 16.128C13.464 15.0187 13.56 13.6533 13.56 12.032ZM20.8395 4.8V0.671999H28.5515V24H23.9435V4.8H20.8395Z" fill="#333333"/>
</svg>
