<svg width="37" height="24" viewBox="0 0 37 24" fill="none" xmlns="http://www.w3.org/2000/svg">
<path d="M0.696 12.032C0.696 8.34133 1.35733 5.45067 2.68 3.36C4.024 1.26933 6.24267 0.223999 9.336 0.223999C12.4293 0.223999 14.6373 1.26933 15.96 3.36C17.304 5.45067 17.976 8.34133 17.976 12.032C17.976 15.744 17.304 18.656 15.96 20.768C14.6373 22.88 12.4293 23.936 9.336 23.936C6.24267 23.936 4.024 22.88 2.68 20.768C1.35733 18.656 0.696 15.744 0.696 12.032ZM13.56 12.032C13.56 10.4533 13.4533 9.13067 13.24 8.064C13.048 6.976 12.6427 6.09067 12.024 5.408C11.4267 4.72533 10.5307 4.384 9.336 4.384C8.14133 4.384 7.23467 4.72533 6.616 5.408C6.01867 6.09067 5.61333 6.976 5.4 8.064C5.208 9.13067 5.112 10.4533 5.112 12.032C5.112 13.6533 5.208 15.0187 5.4 16.128C5.592 17.216 5.99733 18.1013 6.616 18.784C7.23467 19.4453 8.14133 19.776 9.336 19.776C10.5307 19.776 11.4373 19.4453 12.056 18.784C12.6747 18.1013 13.08 17.216 13.272 16.128C13.464 15.0187 13.56 13.6533 13.56 12.032ZM22.7915 18.944C24.8395 17.2373 26.4715 15.8187 27.6875 14.688C28.9035 13.536 29.9168 12.3413 30.7275 11.104C31.5382 9.86667 31.9435 8.65067 31.9435 7.456C31.9435 6.368 31.6875 5.51467 31.1755 4.896C30.6635 4.27733 29.8742 3.968 28.8075 3.968C27.7408 3.968 26.9195 4.33067 26.3435 5.056C25.7675 5.76 25.4688 6.73067 25.4475 7.968H21.0955C21.1808 5.408 21.9382 3.46667 23.3675 2.144C24.8182 0.821332 26.6528 0.159998 28.8715 0.159998C31.3035 0.159998 33.1702 0.810665 34.4715 2.112C35.7728 3.392 36.4235 5.088 36.4235 7.2C36.4235 8.864 35.9755 10.4533 35.0795 11.968C34.1835 13.4827 33.1595 14.8053 32.0075 15.936C30.8555 17.0453 29.3515 18.3893 27.4955 19.968H36.9355V23.68H21.1275V20.352L22.7915 18.944Z" fill="#333333"/>
</svg>
