<svg width="28" height="18" viewBox="0 0 28 18" fill="none" xmlns="http://www.w3.org/2000/svg">
<path d="M0.272 9.024C0.272 6.256 0.768 4.088 1.76 2.52C2.768 0.951999 4.432 0.167999 6.752 0.167999C9.072 0.167999 10.728 0.951999 11.72 2.52C12.728 4.088 13.232 6.256 13.232 9.024C13.232 11.808 12.728 13.992 11.72 15.576C10.728 17.16 9.072 17.952 6.752 17.952C4.432 17.952 2.768 17.16 1.76 15.576C0.768 13.992 0.272 11.808 0.272 9.024ZM9.92 9.024C9.92 7.84 9.84 6.848 9.68 6.048C9.536 5.232 9.232 4.568 8.768 4.056C8.32 3.544 7.648 3.288 6.752 3.288C5.856 3.288 5.176 3.544 4.712 4.056C4.264 4.568 3.96 5.232 3.8 6.048C3.656 6.848 3.584 7.84 3.584 9.024C3.584 10.24 3.656 11.264 3.8 12.096C3.944 12.912 4.248 13.576 4.712 14.088C5.176 14.584 5.856 14.832 6.752 14.832C7.648 14.832 8.328 14.584 8.792 14.088C9.256 13.576 9.56 12.912 9.704 12.096C9.848 11.264 9.92 10.24 9.92 9.024ZM16.8436 14.208C18.3796 12.928 19.6036 11.864 20.5156 11.016C21.4276 10.152 22.1876 9.256 22.7956 8.328C23.4036 7.4 23.7076 6.488 23.7076 5.592C23.7076 4.776 23.5156 4.136 23.1316 3.672C22.7476 3.208 22.1556 2.976 21.3556 2.976C20.5556 2.976 19.9396 3.248 19.5076 3.792C19.0756 4.32 18.8516 5.048 18.8356 5.976H15.5716C15.6356 4.056 16.2036 2.6 17.2756 1.608C18.3636 0.615999 19.7396 0.119998 21.4036 0.119998C23.2276 0.119998 24.6276 0.607999 25.6036 1.584C26.5796 2.544 27.0676 3.816 27.0676 5.4C27.0676 6.648 26.7316 7.84 26.0596 8.976C25.3876 10.112 24.6196 11.104 23.7556 11.952C22.8916 12.784 21.7636 13.792 20.3716 14.976H27.4516V17.76H15.5956V15.264L16.8436 14.208Z" fill="#333333"/>
</svg>
