<svg width="37" height="25" viewBox="0 0 37 25" fill="none" xmlns="http://www.w3.org/2000/svg">
<path d="M0.696 12.032C0.696 8.34133 1.35733 5.45067 2.68 3.36C4.024 1.26933 6.24267 0.223999 9.336 0.223999C12.4293 0.223999 14.6373 1.26933 15.96 3.36C17.304 5.45067 17.976 8.34133 17.976 12.032C17.976 15.744 17.304 18.656 15.96 20.768C14.6373 22.88 12.4293 23.936 9.336 23.936C6.24267 23.936 4.024 22.88 2.68 20.768C1.35733 18.656 0.696 15.744 0.696 12.032ZM13.56 12.032C13.56 10.4533 13.4533 9.13067 13.24 8.064C13.048 6.976 12.6427 6.09067 12.024 5.408C11.4267 4.72533 10.5307 4.384 9.336 4.384C8.14133 4.384 7.23467 4.72533 6.616 5.408C6.01867 6.09067 5.61333 6.976 5.4 8.064C5.208 9.13067 5.112 10.4533 5.112 12.032C5.112 13.6533 5.208 15.0187 5.4 16.128C5.592 17.216 5.99733 18.1013 6.616 18.784C7.23467 19.4453 8.14133 19.776 9.336 19.776C10.5307 19.776 11.4373 19.4453 12.056 18.784C12.6747 18.1013 13.08 17.216 13.272 16.128C13.464 15.0187 13.56 13.6533 13.56 12.032ZM21.4475 6.816C21.5542 4.68267 22.3008 3.04 23.6875 1.888C25.0955 0.714665 26.9408 0.127998 29.2235 0.127998C30.7808 0.127998 32.1142 0.405332 33.2235 0.959999C34.3328 1.49333 35.1648 2.22933 35.7195 3.168C36.2955 4.08533 36.5835 5.13067 36.5835 6.304C36.5835 7.648 36.2315 8.78933 35.5275 9.728C34.8448 10.6453 34.0235 11.264 33.0635 11.584V11.712C34.3008 12.096 35.2608 12.7787 35.9435 13.76C36.6475 14.7413 36.9995 16 36.9995 17.536C36.9995 18.816 36.7008 19.9573 36.1035 20.96C35.5275 21.9627 34.6635 22.752 33.5115 23.328C32.3808 23.8827 31.0155 24.16 29.4155 24.16C27.0048 24.16 25.0422 23.552 23.5275 22.336C22.0128 21.12 21.2128 19.328 21.1275 16.96H25.4795C25.5222 18.0053 25.8742 18.848 26.5355 19.488C27.2182 20.1067 28.1462 20.416 29.3195 20.416C30.4075 20.416 31.2395 20.1173 31.8155 19.52C32.4128 18.9013 32.7115 18.112 32.7115 17.152C32.7115 15.872 32.3062 14.9547 31.4955 14.4C30.6848 13.8453 29.4262 13.568 27.7195 13.568H26.7915V9.888H27.7195C30.7488 9.888 32.2635 8.87467 32.2635 6.848C32.2635 5.93067 31.9862 5.216 31.4315 4.704C30.8982 4.192 30.1195 3.936 29.0955 3.936C28.0928 3.936 27.3142 4.21333 26.7595 4.768C26.2262 5.30133 25.9168 5.984 25.8315 6.816H21.4475Z" fill="#333333"/>
</svg>
