<svg width="28" height="19" viewBox="0 0 28 19" fill="none" xmlns="http://www.w3.org/2000/svg">
<path d="M0.272 9.024C0.272 6.256 0.768 4.088 1.76 2.52C2.768 0.951999 4.432 0.167999 6.752 0.167999C9.072 0.167999 10.728 0.951999 11.72 2.52C12.728 4.088 13.232 6.256 13.232 9.024C13.232 11.808 12.728 13.992 11.72 15.576C10.728 17.16 9.072 17.952 6.752 17.952C4.432 17.952 2.768 17.16 1.76 15.576C0.768 13.992 0.272 11.808 0.272 9.024ZM9.92 9.024C9.92 7.84 9.84 6.848 9.68 6.048C9.536 5.232 9.232 4.568 8.768 4.056C8.32 3.544 7.648 3.288 6.752 3.288C5.856 3.288 5.176 3.544 4.712 4.056C4.264 4.568 3.96 5.232 3.8 6.048C3.656 6.848 3.584 7.84 3.584 9.024C3.584 10.24 3.656 11.264 3.8 12.096C3.944 12.912 4.248 13.576 4.712 14.088C5.176 14.584 5.856 14.832 6.752 14.832C7.648 14.832 8.328 14.584 8.792 14.088C9.256 13.576 9.56 12.912 9.704 12.096C9.848 11.264 9.92 10.24 9.92 9.024ZM15.8356 5.112C15.9156 3.512 16.4756 2.28 17.5156 1.416C18.5716 0.535999 19.9556 0.0959988 21.6676 0.0959988C22.8356 0.0959988 23.8356 0.303999 24.6676 0.719999C25.4996 1.12 26.1236 1.672 26.5396 2.376C26.9716 3.064 27.1876 3.848 27.1876 4.728C27.1876 5.736 26.9236 6.592 26.3956 7.296C25.8836 7.984 25.2676 8.448 24.5476 8.688V8.784C25.4756 9.072 26.1956 9.584 26.7076 10.32C27.2356 11.056 27.4996 12 27.4996 13.152C27.4996 14.112 27.2756 14.968 26.8276 15.72C26.3956 16.472 25.7476 17.064 24.8836 17.496C24.0356 17.912 23.0116 18.12 21.8116 18.12C20.0036 18.12 18.5316 17.664 17.3956 16.752C16.2596 15.84 15.6596 14.496 15.5956 12.72H18.8596C18.8916 13.504 19.1556 14.136 19.6516 14.616C20.1636 15.08 20.8596 15.312 21.7396 15.312C22.5556 15.312 23.1796 15.088 23.6116 14.64C24.0596 14.176 24.2836 13.584 24.2836 12.864C24.2836 11.904 23.9796 11.216 23.3716 10.8C22.7636 10.384 21.8196 10.176 20.5396 10.176H19.8436V7.416H20.5396C22.8116 7.416 23.9476 6.656 23.9476 5.136C23.9476 4.448 23.7396 3.912 23.3236 3.528C22.9236 3.144 22.3396 2.952 21.5716 2.952C20.8196 2.952 20.2356 3.16 19.8196 3.576C19.4196 3.976 19.1876 4.488 19.1236 5.112H15.8356Z" fill="#333333"/>
</svg>
