<svg width="133" height="52" viewBox="0 0 133 52" fill="none" xmlns="http://www.w3.org/2000/svg">
<path d="M0.774 37.718C0.774 36.494 1.05 35.396 1.602 34.424C2.154 33.44 2.904 32.672 3.852 32.12C4.812 31.568 5.874 31.292 7.038 31.292C8.406 31.292 9.6 31.622 10.62 32.282C11.64 32.942 12.384 33.878 12.852 35.09H10.89C10.542 34.334 10.038 33.752 9.378 33.344C8.73 32.936 7.95 32.732 7.038 32.732C6.162 32.732 5.376 32.936 4.68 33.344C3.984 33.752 3.438 34.334 3.042 35.09C2.646 35.834 2.448 36.71 2.448 37.718C2.448 38.714 2.646 39.59 3.042 40.346C3.438 41.09 3.984 41.666 4.68 42.074C5.376 42.482 6.162 42.686 7.038 42.686C7.95 42.686 8.73 42.488 9.378 42.092C10.038 41.684 10.542 41.102 10.89 40.346H12.852C12.384 41.546 11.64 42.476 10.62 43.136C9.6 43.784 8.406 44.108 7.038 44.108C5.874 44.108 4.812 43.838 3.852 43.298C2.904 42.746 2.154 41.984 1.602 41.012C1.05 40.04 0.774 38.942 0.774 37.718ZM16.9283 32.786V36.98H21.5003V38.33H16.9283V42.65H22.0403V44H15.2903V31.436H22.0403V32.786H16.9283ZM30.2068 44.126C29.0428 44.126 27.9808 43.856 27.0208 43.316C26.0608 42.764 25.2988 42.002 24.7348 41.03C24.1828 40.046 23.9068 38.942 23.9068 37.718C23.9068 36.494 24.1828 35.396 24.7348 34.424C25.2988 33.44 26.0608 32.678 27.0208 32.138C27.9808 31.586 29.0428 31.31 30.2068 31.31C31.3828 31.31 32.4508 31.586 33.4108 32.138C34.3708 32.678 35.1268 33.434 35.6788 34.406C36.2308 35.378 36.5068 36.482 36.5068 37.718C36.5068 38.954 36.2308 40.058 35.6788 41.03C35.1268 42.002 34.3708 42.764 33.4108 43.316C32.4508 43.856 31.3828 44.126 30.2068 44.126ZM30.2068 42.704C31.0828 42.704 31.8688 42.5 32.5648 42.092C33.2728 41.684 33.8248 41.102 34.2208 40.346C34.6288 39.59 34.8328 38.714 34.8328 37.718C34.8328 36.71 34.6288 35.834 34.2208 35.09C33.8248 34.334 33.2788 33.752 32.5828 33.344C31.8868 32.936 31.0948 32.732 30.2068 32.732C29.3188 32.732 28.5268 32.936 27.8308 33.344C27.1348 33.752 26.5828 34.334 26.1748 35.09C25.7788 35.834 25.5808 36.71 25.5808 37.718C25.5808 38.714 25.7788 39.59 26.1748 40.346C26.5828 41.102 27.1348 41.684 27.8308 42.092C28.5388 42.5 29.3308 42.704 30.2068 42.704ZM47.77 44.162C46.846 44.162 46.006 43.952 45.25 43.532C44.506 43.112 43.918 42.518 43.486 41.75C43.066 40.97 42.856 40.07 42.856 39.05C42.856 38.042 43.072 37.154 43.504 36.386C43.948 35.606 44.548 35.012 45.304 34.604C46.06 34.184 46.906 33.974 47.842 33.974C48.778 33.974 49.624 34.184 50.38 34.604C51.136 35.012 51.73 35.6 52.162 36.368C52.606 37.136 52.828 38.03 52.828 39.05C52.828 40.07 52.6 40.97 52.144 41.75C51.7 42.518 51.094 43.112 50.326 43.532C49.558 43.952 48.706 44.162 47.77 44.162ZM47.77 42.722C48.358 42.722 48.91 42.584 49.426 42.308C49.942 42.032 50.356 41.618 50.668 41.066C50.992 40.514 51.154 39.842 51.154 39.05C51.154 38.258 50.998 37.586 50.686 37.034C50.374 36.482 49.966 36.074 49.462 35.81C48.958 35.534 48.412 35.396 47.824 35.396C47.224 35.396 46.672 35.534 46.168 35.81C45.676 36.074 45.28 36.482 44.98 37.034C44.68 37.586 44.53 38.258 44.53 39.05C44.53 39.854 44.674 40.532 44.962 41.084C45.262 41.636 45.658 42.05 46.15 42.326C46.642 42.59 47.182 42.722 47.77 42.722ZM58.9957 35.486H56.9257V44H55.2877V35.486H54.0097V34.136H55.2877V33.434C55.2877 32.33 55.5697 31.526 56.1337 31.022C56.7097 30.506 57.6277 30.248 58.8877 30.248V31.616C58.1677 31.616 57.6577 31.76 57.3577 32.048C57.0697 32.324 56.9257 32.786 56.9257 33.434V34.136H58.9957V35.486ZM69.6104 31.454C70.9784 31.454 72.1604 31.712 73.1564 32.228C74.1644 32.732 74.9324 33.458 75.4604 34.406C76.0004 35.354 76.2704 36.47 76.2704 37.754C76.2704 39.038 76.0004 40.154 75.4604 41.102C74.9324 42.038 74.1644 42.758 73.1564 43.262C72.1604 43.754 70.9784 44 69.6104 44H65.7044V31.454H69.6104ZM69.6104 42.65C71.2304 42.65 72.4664 42.224 73.3184 41.372C74.1704 40.508 74.5964 39.302 74.5964 37.754C74.5964 36.194 74.1644 34.976 73.3004 34.1C72.4484 33.224 71.2184 32.786 69.6104 32.786H67.3424V42.65H69.6104ZM77.8189 39.032C77.8189 38.024 78.0229 37.142 78.4309 36.386C78.8389 35.618 79.3969 35.024 80.1049 34.604C80.8249 34.184 81.6229 33.974 82.4989 33.974C83.3629 33.974 84.1129 34.16 84.7489 34.532C85.3849 34.904 85.8589 35.372 86.1709 35.936V34.136H87.8269V44H86.1709V42.164C85.8469 42.74 85.3609 43.22 84.7129 43.604C84.0769 43.976 83.3329 44.162 82.4809 44.162C81.6049 44.162 80.8129 43.946 80.1049 43.514C79.3969 43.082 78.8389 42.476 78.4309 41.696C78.0229 40.916 77.8189 40.028 77.8189 39.032ZM86.1709 39.05C86.1709 38.306 86.0209 37.658 85.7209 37.106C85.4209 36.554 85.0129 36.134 84.4969 35.846C83.9929 35.546 83.4349 35.396 82.8229 35.396C82.2109 35.396 81.6529 35.54 81.1489 35.828C80.6449 36.116 80.2429 36.536 79.9429 37.088C79.6429 37.64 79.4929 38.288 79.4929 39.032C79.4929 39.788 79.6429 40.448 79.9429 41.012C80.2429 41.564 80.6449 41.99 81.1489 42.29C81.6529 42.578 82.2109 42.722 82.8229 42.722C83.4349 42.722 83.9929 42.578 84.4969 42.29C85.0129 41.99 85.4209 41.564 85.7209 41.012C86.0209 40.448 86.1709 39.794 86.1709 39.05ZM95.401 33.956C96.601 33.956 97.573 34.322 98.317 35.054C99.061 35.774 99.433 36.818 99.433 38.186V44H97.813V38.42C97.813 37.436 97.567 36.686 97.075 36.17C96.583 35.642 95.911 35.378 95.059 35.378C94.195 35.378 93.505 35.648 92.989 36.188C92.485 36.728 92.233 37.514 92.233 38.546V44H90.595V34.136H92.233V35.54C92.557 35.036 92.995 34.646 93.547 34.37C94.111 34.094 94.729 33.956 95.401 33.956ZM101.497 39.032C101.497 38.024 101.701 37.142 102.109 36.386C102.517 35.618 103.075 35.024 103.783 34.604C104.503 34.184 105.301 33.974 106.177 33.974C107.041 33.974 107.791 34.16 108.427 34.532C109.063 34.904 109.537 35.372 109.849 35.936V34.136H111.505V44H109.849V42.164C109.525 42.74 109.039 43.22 108.391 43.604C107.755 43.976 107.011 44.162 106.159 44.162C105.283 44.162 104.491 43.946 103.783 43.514C103.075 43.082 102.517 42.476 102.109 41.696C101.701 40.916 101.497 40.028 101.497 39.032ZM109.849 39.05C109.849 38.306 109.699 37.658 109.399 37.106C109.099 36.554 108.691 36.134 108.175 35.846C107.671 35.546 107.113 35.396 106.501 35.396C105.889 35.396 105.331 35.54 104.827 35.828C104.323 36.116 103.921 36.536 103.621 37.088C103.321 37.64 103.171 38.288 103.171 39.032C103.171 39.788 103.321 40.448 103.621 41.012C103.921 41.564 104.323 41.99 104.827 42.29C105.331 42.578 105.889 42.722 106.501 42.722C107.113 42.722 107.671 42.578 108.175 42.29C108.691 41.99 109.099 41.564 109.399 41.012C109.699 40.448 109.849 39.794 109.849 39.05ZM119.079 33.956C120.279 33.956 121.251 34.322 121.995 35.054C122.739 35.774 123.111 36.818 123.111 38.186V44H121.491V38.42C121.491 37.436 121.245 36.686 120.753 36.17C120.261 35.642 119.589 35.378 118.737 35.378C117.873 35.378 117.183 35.648 116.667 36.188C116.163 36.728 115.911 37.514 115.911 38.546V44H114.273V34.136H115.911V35.54C116.235 35.036 116.673 34.646 117.225 34.37C117.789 34.094 118.407 33.956 119.079 33.956ZM127.01 42.65H131.852V44H125.138V42.65L129.926 35.468H125.174V34.136H131.816V35.468L127.01 42.65Z" fill="#9C9C9C"/>
<path d="M8.946 16.606H3.942L3.114 19H0.468L4.986 6.418H7.92L12.438 19H9.774L8.946 16.606ZM8.262 14.59L6.444 9.334L4.626 14.59H8.262ZM16.6468 10.576C16.9708 10.048 17.3908 9.634 17.9068 9.334C18.4348 9.034 19.0348 8.884 19.7068 8.884V11.53H19.0408C18.2488 11.53 17.6488 11.716 17.2408 12.088C16.8448 12.46 16.6468 13.108 16.6468 14.032V19H14.1268V9.028H16.6468V10.576ZM25.3101 8.866C26.0541 8.866 26.7081 9.016 27.2721 9.316C27.8361 9.604 28.2801 9.982 28.6041 10.45V9.028H31.1421V19.072C31.1421 19.996 30.9561 20.818 30.5841 21.538C30.2121 22.27 29.6541 22.846 28.9101 23.266C28.1661 23.698 27.2661 23.914 26.2101 23.914C24.7941 23.914 23.6301 23.584 22.7181 22.924C21.8181 22.264 21.3081 21.364 21.1881 20.224H23.6901C23.8221 20.68 24.1041 21.04 24.5361 21.304C24.9801 21.58 25.5141 21.718 26.1381 21.718C26.8701 21.718 27.4641 21.496 27.9201 21.052C28.3761 20.62 28.6041 19.96 28.6041 19.072V17.524C28.2801 17.992 27.8301 18.382 27.2541 18.694C26.6901 19.006 26.0421 19.162 25.3101 19.162C24.4701 19.162 23.7021 18.946 23.0061 18.514C22.3101 18.082 21.7581 17.476 21.3501 16.696C20.9541 15.904 20.7561 14.998 20.7561 13.978C20.7561 12.97 20.9541 12.076 21.3501 11.296C21.7581 10.516 22.3041 9.916 22.9881 9.496C23.6841 9.076 24.4581 8.866 25.3101 8.866ZM28.6041 14.014C28.6041 13.402 28.4841 12.88 28.2441 12.448C28.0041 12.004 27.6801 11.668 27.2721 11.44C26.8641 11.2 26.4261 11.08 25.9581 11.08C25.4901 11.08 25.0581 11.194 24.6621 11.422C24.2661 11.65 23.9421 11.986 23.6901 12.43C23.4501 12.862 23.3301 13.378 23.3301 13.978C23.3301 14.578 23.4501 15.106 23.6901 15.562C23.9421 16.006 24.2661 16.348 24.6621 16.588C25.0701 16.828 25.5021 16.948 25.9581 16.948C26.4261 16.948 26.8641 16.834 27.2721 16.606C27.6801 16.366 28.0041 16.03 28.2441 15.598C28.4841 15.154 28.6041 14.626 28.6041 14.014ZM32.9553 13.978C32.9553 12.97 33.1533 12.076 33.5493 11.296C33.9573 10.516 34.5033 9.916 35.1873 9.496C35.8833 9.076 36.6573 8.866 37.5093 8.866C38.2533 8.866 38.9013 9.016 39.4533 9.316C40.0173 9.616 40.4673 9.994 40.8033 10.45V9.028H43.3413V19H40.8033V17.542C40.4793 18.01 40.0293 18.4 39.4533 18.712C38.8893 19.012 38.2353 19.162 37.4913 19.162C36.6513 19.162 35.8833 18.946 35.1873 18.514C34.5033 18.082 33.9573 17.476 33.5493 16.696C33.1533 15.904 32.9553 14.998 32.9553 13.978ZM40.8033 14.014C40.8033 13.402 40.6833 12.88 40.4433 12.448C40.2033 12.004 39.8793 11.668 39.4713 11.44C39.0633 11.2 38.6253 11.08 38.1573 11.08C37.6893 11.08 37.2573 11.194 36.8613 11.422C36.4653 11.65 36.1413 11.986 35.8893 12.43C35.6493 12.862 35.5293 13.378 35.5293 13.978C35.5293 14.578 35.6493 15.106 35.8893 15.562C36.1413 16.006 36.4653 16.348 36.8613 16.588C37.2693 16.828 37.7013 16.948 38.1573 16.948C38.6253 16.948 39.0633 16.834 39.4713 16.606C39.8793 16.366 40.2033 16.03 40.4433 15.598C40.6833 15.154 40.8033 14.626 40.8033 14.014ZM54.4836 6.436C55.8036 6.436 56.9616 6.694 57.9576 7.21C58.9656 7.726 59.7396 8.464 60.2796 9.424C60.8316 10.372 61.1076 11.476 61.1076 12.736C61.1076 13.996 60.8316 15.1 60.2796 16.048C59.7396 16.984 58.9656 17.71 57.9576 18.226C56.9616 18.742 55.8036 19 54.4836 19H50.0916V6.436H54.4836ZM54.3936 16.858C55.7136 16.858 56.7336 16.498 57.4536 15.778C58.1736 15.058 58.5336 14.044 58.5336 12.736C58.5336 11.428 58.1736 10.408 57.4536 9.676C56.7336 8.932 55.7136 8.56 54.3936 8.56H52.6116V16.858H54.3936ZM62.346 13.978C62.346 12.97 62.544 12.076 62.94 11.296C63.348 10.516 63.894 9.916 64.578 9.496C65.274 9.076 66.048 8.866 66.9 8.866C67.644 8.866 68.292 9.016 68.844 9.316C69.408 9.616 69.858 9.994 70.194 10.45V9.028H72.732V19H70.194V17.542C69.87 18.01 69.42 18.4 68.844 18.712C68.28 19.012 67.626 19.162 66.882 19.162C66.042 19.162 65.274 18.946 64.578 18.514C63.894 18.082 63.348 17.476 62.94 16.696C62.544 15.904 62.346 14.998 62.346 13.978ZM70.194 14.014C70.194 13.402 70.074 12.88 69.834 12.448C69.594 12.004 69.27 11.668 68.862 11.44C68.454 11.2 68.016 11.08 67.548 11.08C67.08 11.08 66.648 11.194 66.252 11.422C65.856 11.65 65.532 11.986 65.28 12.43C65.04 12.862 64.92 13.378 64.92 13.978C64.92 14.578 65.04 15.106 65.28 15.562C65.532 16.006 65.856 16.348 66.252 16.588C66.66 16.828 67.092 16.948 67.548 16.948C68.016 16.948 68.454 16.834 68.862 16.606C69.27 16.366 69.594 16.03 69.834 15.598C70.074 15.154 70.194 14.626 70.194 14.014ZM80.7192 8.884C81.9072 8.884 82.8672 9.262 83.5992 10.018C84.3312 10.762 84.6972 11.806 84.6972 13.15V19H82.1772V13.492C82.1772 12.7 81.9792 12.094 81.5832 11.674C81.1872 11.242 80.6472 11.026 79.9632 11.026C79.2672 11.026 78.7152 11.242 78.3072 11.674C77.9112 12.094 77.7132 12.7 77.7132 13.492V19H75.1932V9.028H77.7132V10.27C78.0492 9.838 78.4752 9.502 78.9912 9.262C79.5192 9.01 80.0952 8.884 80.7192 8.884ZM86.4456 13.978C86.4456 12.97 86.6436 12.076 87.0396 11.296C87.4476 10.516 87.9936 9.916 88.6776 9.496C89.3736 9.076 90.1476 8.866 90.9996 8.866C91.7436 8.866 92.3916 9.016 92.9436 9.316C93.5076 9.616 93.9576 9.994 94.2936 10.45V9.028H96.8316V19H94.2936V17.542C93.9696 18.01 93.5196 18.4 92.9436 18.712C92.3796 19.012 91.7256 19.162 90.9816 19.162C90.1416 19.162 89.3736 18.946 88.6776 18.514C87.9936 18.082 87.4476 17.476 87.0396 16.696C86.6436 15.904 86.4456 14.998 86.4456 13.978ZM94.2936 14.014C94.2936 13.402 94.1736 12.88 93.9336 12.448C93.6936 12.004 93.3696 11.668 92.9616 11.44C92.5536 11.2 92.1156 11.08 91.6476 11.08C91.1796 11.08 90.7476 11.194 90.3516 11.422C89.9556 11.65 89.6316 11.986 89.3796 12.43C89.1396 12.862 89.0196 13.378 89.0196 13.978C89.0196 14.578 89.1396 15.106 89.3796 15.562C89.6316 16.006 89.9556 16.348 90.3516 16.588C90.7596 16.828 91.1916 16.948 91.6476 16.948C92.1156 16.948 92.5536 16.834 92.9616 16.606C93.3696 16.366 93.6936 16.03 93.9336 15.598C94.1736 15.154 94.2936 14.626 94.2936 14.014ZM98.6448 13.978C98.6448 12.97 98.8428 12.076 99.2388 11.296C99.6468 10.516 100.193 9.916 100.877 9.496C101.573 9.076 102.347 8.866 103.199 8.866C103.943 8.866 104.591 9.016 105.143 9.316C105.707 9.616 106.157 9.994 106.493 10.45V9.028H109.031V19H106.493V17.542C106.169 18.01 105.719 18.4 105.143 18.712C104.579 19.012 103.925 19.162 103.181 19.162C102.341 19.162 101.573 18.946 100.877 18.514C100.193 18.082 99.6468 17.476 99.2388 16.696C98.8428 15.904 98.6448 14.998 98.6448 13.978ZM106.493 14.014C106.493 13.402 106.373 12.88 106.133 12.448C105.893 12.004 105.569 11.668 105.161 11.44C104.753 11.2 104.315 11.08 103.847 11.08C103.379 11.08 102.947 11.194 102.551 11.422C102.155 11.65 101.831 11.986 101.579 12.43C101.339 12.862 101.219 13.378 101.219 13.978C101.219 14.578 101.339 15.106 101.579 15.562C101.831 16.006 102.155 16.348 102.551 16.588C102.959 16.828 103.391 16.948 103.847 16.948C104.315 16.948 104.753 16.834 105.161 16.606C105.569 16.366 105.893 16.03 106.133 15.598C106.373 15.154 106.493 14.626 106.493 14.014ZM117.018 8.884C118.206 8.884 119.166 9.262 119.898 10.018C120.63 10.762 120.996 11.806 120.996 13.15V19H118.476V13.492C118.476 12.7 118.278 12.094 117.882 11.674C117.486 11.242 116.946 11.026 116.262 11.026C115.566 11.026 115.014 11.242 114.606 11.674C114.21 12.094 114.012 12.7 114.012 13.492V19H111.492V9.028H114.012V10.27C114.348 9.838 114.774 9.502 115.29 9.262C115.818 9.01 116.394 8.884 117.018 8.884Z" fill="black"/>
</svg>
